<mxfile host="app.diagrams.net" modified="2023-12-10T21:45:23.186Z" agent="Mozilla/5.0 (Windows NT 10.0; Win64; x64) AppleWebKit/537.36 (KHTML, like Gecko) Chrome/118.0.0.0 Safari/537.36 OPR/104.0.0.0" etag="GzC2xD3tCFF2GV-b4E_K" version="22.1.7" type="device">
  <diagram name="Page-1" id="mZqWOOnhlOHiUBLtI3QR">
    <mxGraphModel dx="1049" dy="578" grid="1" gridSize="10" guides="1" tooltips="1" connect="1" arrows="1" fold="1" page="1" pageScale="1" pageWidth="1169" pageHeight="827" math="0" shadow="0">
      <root>
        <mxCell id="0" />
        <mxCell id="1" parent="0" />
        <mxCell id="B-rboqxDgSMU5BNRw3ej-1" value="&lt;font style=&quot;font-size: 15px;&quot;&gt;Controller&lt;/font&gt;" style="shape=folder;fontStyle=1;spacingTop=10;tabWidth=40;tabHeight=14;tabPosition=left;html=1;whiteSpace=wrap;" vertex="1" parent="1">
          <mxGeometry x="340" y="300" width="120" height="70" as="geometry" />
        </mxCell>
        <mxCell id="B-rboqxDgSMU5BNRw3ej-2" value="&lt;font style=&quot;font-size: 15px;&quot;&gt;Model&lt;/font&gt;" style="shape=folder;fontStyle=1;spacingTop=10;tabWidth=40;tabHeight=14;tabPosition=left;html=1;whiteSpace=wrap;" vertex="1" parent="1">
          <mxGeometry x="830" y="300" width="120" height="70" as="geometry" />
        </mxCell>
        <mxCell id="B-rboqxDgSMU5BNRw3ej-3" value="&lt;font style=&quot;font-size: 15px;&quot;&gt;Service&lt;/font&gt;" style="shape=folder;fontStyle=1;spacingTop=10;tabWidth=40;tabHeight=14;tabPosition=left;html=1;whiteSpace=wrap;" vertex="1" parent="1">
          <mxGeometry x="510" y="300" width="120" height="70" as="geometry" />
        </mxCell>
        <mxCell id="B-rboqxDgSMU5BNRw3ej-5" value="&lt;font style=&quot;font-size: 15px;&quot;&gt;DAO&lt;/font&gt;" style="shape=folder;fontStyle=1;spacingTop=10;tabWidth=40;tabHeight=14;tabPosition=left;html=1;whiteSpace=wrap;" vertex="1" parent="1">
          <mxGeometry x="670" y="300" width="120" height="70" as="geometry" />
        </mxCell>
        <mxCell id="B-rboqxDgSMU5BNRw3ej-6" value="&lt;font style=&quot;font-size: 15px;&quot;&gt;ExceptionHandlers&lt;/font&gt;" style="shape=folder;fontStyle=1;spacingTop=10;tabWidth=40;tabHeight=14;tabPosition=left;html=1;whiteSpace=wrap;" vertex="1" parent="1">
          <mxGeometry x="495" y="450" width="150" height="70" as="geometry" />
        </mxCell>
        <mxCell id="B-rboqxDgSMU5BNRw3ej-7" value="&lt;font style=&quot;font-size: 15px;&quot;&gt;Security&lt;/font&gt;" style="shape=folder;fontStyle=1;spacingTop=10;tabWidth=40;tabHeight=14;tabPosition=left;html=1;whiteSpace=wrap;" vertex="1" parent="1">
          <mxGeometry x="340" y="450" width="120" height="70" as="geometry" />
        </mxCell>
        <mxCell id="B-rboqxDgSMU5BNRw3ej-13" value="" style="endArrow=classic;html=1;rounded=0;" edge="1" parent="1" source="B-rboqxDgSMU5BNRw3ej-1" target="B-rboqxDgSMU5BNRw3ej-3">
          <mxGeometry width="50" height="50" relative="1" as="geometry">
            <mxPoint x="550" y="400" as="sourcePoint" />
            <mxPoint x="600" y="350" as="targetPoint" />
          </mxGeometry>
        </mxCell>
        <mxCell id="B-rboqxDgSMU5BNRw3ej-14" value="" style="endArrow=classic;html=1;rounded=0;" edge="1" parent="1" source="B-rboqxDgSMU5BNRw3ej-3" target="B-rboqxDgSMU5BNRw3ej-5">
          <mxGeometry width="50" height="50" relative="1" as="geometry">
            <mxPoint x="620" y="413" as="sourcePoint" />
            <mxPoint x="670" y="413" as="targetPoint" />
          </mxGeometry>
        </mxCell>
        <mxCell id="B-rboqxDgSMU5BNRw3ej-15" value="" style="endArrow=classic;html=1;rounded=0;" edge="1" parent="1" source="B-rboqxDgSMU5BNRw3ej-5" target="B-rboqxDgSMU5BNRw3ej-2">
          <mxGeometry width="50" height="50" relative="1" as="geometry">
            <mxPoint x="660" y="430" as="sourcePoint" />
            <mxPoint x="700" y="430" as="targetPoint" />
          </mxGeometry>
        </mxCell>
        <mxCell id="B-rboqxDgSMU5BNRw3ej-16" value="" style="endArrow=classic;html=1;rounded=0;" edge="1" parent="1" source="B-rboqxDgSMU5BNRw3ej-3" target="B-rboqxDgSMU5BNRw3ej-6">
          <mxGeometry width="50" height="50" relative="1" as="geometry">
            <mxPoint x="550" y="400" as="sourcePoint" />
            <mxPoint x="590" y="400" as="targetPoint" />
          </mxGeometry>
        </mxCell>
        <mxCell id="B-rboqxDgSMU5BNRw3ej-17" value="" style="endArrow=classic;html=1;rounded=0;" edge="1" parent="1" source="B-rboqxDgSMU5BNRw3ej-1" target="B-rboqxDgSMU5BNRw3ej-7">
          <mxGeometry width="50" height="50" relative="1" as="geometry">
            <mxPoint x="430" y="380" as="sourcePoint" />
            <mxPoint x="430" y="460" as="targetPoint" />
          </mxGeometry>
        </mxCell>
      </root>
    </mxGraphModel>
  </diagram>
</mxfile>
